<svg width="568" height="568" viewBox="0 0 568 568" fill="none" xmlns="http://www.w3.org/2000/svg">
<path d="M416.894 404.406L405.859 396.144C405.798 396.098 405.728 396.065 405.653 396.046L389.092 392.025C388.946 391.99 388.794 392.013 388.665 392.09L371.553 402.423L365.613 401.867C365.468 401.849 365.325 401.894 365.21 401.984L348.266 415.195C348.146 415.29 348.069 415.428 348.051 415.579L347.763 418.117C347.741 418.326 347.834 418.533 348.009 418.651L350.181 420.129L304.647 448.212C304.439 448.34 304.337 448.586 304.391 448.824L304.934 451.18L305.397 454.201C305.428 454.399 305.561 454.567 305.746 454.641L309.566 456.186C309.633 456.214 309.706 456.228 309.779 456.228C309.813 456.228 309.846 456.225 309.88 456.219L314.666 455.358C314.722 455.348 314.774 455.33 314.824 455.305L357.661 433.463L392.856 421.177L404.152 421.573C404.244 421.574 404.331 421.558 404.411 421.521L410.825 418.554C411.043 418.453 411.173 418.226 411.152 417.987L410.842 414.564C410.849 414.511 410.849 414.458 410.841 414.403C410.805 414.169 410.625 413.982 410.392 413.934L380.739 407.876L387.187 403.996L413.746 410.08C413.929 410.125 414.122 410.07 414.259 409.942L416.987 407.405C417.106 407.295 417.171 407.139 417.167 406.977L417.12 404.848C417.118 404.673 417.034 404.51 416.894 404.406ZM314.384 454.255L309.841 455.072L306.474 453.709L306.189 451.857L310.122 452.953C310.21 452.977 310.301 452.979 310.39 452.963L314.309 452.152C314.358 452.141 314.407 452.125 314.452 452.101L336.143 440.997L349.728 436.231L314.384 454.255ZM307.392 451.012L328.443 443.664L314.004 451.055L310.295 451.822L307.392 451.012ZM365.148 429.647L382.473 420.813L389.725 421.068L365.148 429.647ZM392.684 420.035L382.366 419.673C382.268 419.67 382.174 419.691 382.088 419.734L357.215 432.416L343.675 437.142L382.499 417.27L397.987 418.183L392.684 420.035ZM409.985 417.691L404.058 420.434L395.816 420.143L400.935 418.357L403.976 418.536C404.084 418.534 404.19 418.517 404.285 418.466L409.779 415.419L409.985 417.691ZM403.727 417.384L404.18 417.225L403.879 417.392L403.727 417.384ZM408.149 414.635L400.775 417.209L382.411 416.126C382.312 416.124 382.209 416.142 382.118 416.187L335.834 439.878L305.905 450.326L305.591 448.964L372.923 407.438L408.149 414.635ZM443.3 338.548C443.36 337.34 444.859 336.213 445.43 335.881C445.648 335.754 445.758 335.501 445.699 335.256L445.162 333.02C445.118 332.839 444.99 332.69 444.817 332.623C444.644 332.555 444.448 332.576 444.293 332.681L440.267 335.383C439.647 334.417 438.206 332.004 437.141 328.94C436.427 326.889 436.884 325.249 437.326 323.662C437.724 322.233 438.101 320.884 437.479 319.501C436.305 316.88 432.396 311.568 432.23 311.344C432.124 311.201 431.958 311.116 431.779 311.113L431.016 311.102C430.874 311.096 430.754 311.145 430.652 311.228C430.55 311.145 430.428 311.117 430.288 311.102L429.524 311.113C429.346 311.116 429.181 311.201 429.074 311.344C428.908 311.568 424.999 316.88 423.824 319.501C423.204 320.884 423.58 322.233 423.978 323.662C424.42 325.249 424.877 326.889 424.163 328.94C423.097 332.004 421.656 334.418 421.037 335.383L417.01 332.681C416.855 332.577 416.66 332.555 416.487 332.623C416.313 332.69 416.185 332.839 416.141 333.02L415.605 335.256C415.546 335.501 415.656 335.754 415.873 335.881C416.446 336.213 417.944 337.34 418.004 338.548C418.028 339.034 417.652 340.654 417.216 342.532C416.156 347.091 414.555 353.982 415.053 358.975C415.769 366.13 419.154 374.608 419.297 374.965C419.348 375.09 419.439 375.192 419.557 375.255C419.618 375.287 420.575 375.787 421.692 375.787C422.258 375.787 422.864 375.658 423.415 375.276C424.859 374.274 425.344 371.906 424.861 368.238C424.447 365.108 423.927 362.629 423.51 360.636C422.651 356.541 422.133 354.07 423.399 350.615C425.287 345.467 429.53 342.041 429.573 342.006C429.714 341.894 429.793 341.719 429.787 341.539C429.78 341.358 429.686 341.191 429.536 341.09L428.667 340.507L430.65 338.223L432.632 340.507L431.764 341.09C431.614 341.19 431.521 341.357 431.513 341.539C431.505 341.72 431.585 341.894 431.727 342.006C431.77 342.04 436.012 345.467 437.9 350.615C439.166 354.071 438.648 356.542 437.79 360.638C437.372 362.63 436.853 365.109 436.44 368.238C435.955 371.906 436.441 374.274 437.885 375.276C438.435 375.658 439.042 375.787 439.608 375.787C440.725 375.787 441.684 375.287 441.743 375.255C441.861 375.193 441.953 375.09 442.003 374.965C442.146 374.608 445.531 366.13 446.246 358.975C446.745 353.982 445.144 347.091 444.084 342.532C443.652 340.654 443.276 339.034 443.3 338.548ZM430.654 316.932C431.511 318.065 433.363 320.993 432.922 322.724C432.504 324.373 431.317 326.381 430.654 327.425C429.991 326.381 428.806 324.375 428.386 322.724C427.945 320.993 429.797 318.064 430.654 316.932ZM431.084 336.984C430.977 336.86 430.82 336.788 430.655 336.788C430.49 336.788 430.333 336.86 430.227 336.984L427.722 339.869L421.986 336.017C422.635 335.011 424.121 332.53 425.24 329.312C426.071 326.926 425.519 324.946 425.075 323.356C424.704 322.024 424.412 320.973 424.863 319.965C425.82 317.834 428.821 313.629 429.729 312.377L429.727 316.274C429.135 317.069 426.666 320.571 427.284 323.003C427.93 325.535 430.097 328.65 430.189 328.782C430.402 329.085 430.907 329.085 431.12 328.782C431.212 328.65 433.38 325.536 434.025 323.003C434.643 320.571 432.175 317.069 431.581 316.274L431.579 312.377C432.486 313.63 435.49 317.834 436.445 319.964C436.897 320.973 436.604 322.024 436.233 323.356C435.789 324.946 435.238 326.926 436.068 329.312C437.187 332.53 438.673 335.012 439.322 336.017L433.586 339.869L431.084 336.984ZM430.654 330.02C429.009 330.02 427.67 331.358 427.67 333.003C427.67 334.649 429.009 335.987 430.654 335.987C432.299 335.987 433.637 334.649 433.637 333.003C433.637 331.358 432.299 330.02 430.654 330.02ZM430.654 334.851C429.636 334.851 428.807 334.023 428.807 333.003C428.807 331.984 429.635 331.157 430.654 331.157C431.673 331.157 432.501 331.984 432.501 333.003C432.501 334.023 431.673 334.851 430.654 334.851ZM501.192 160.005H404.873H202.984H80.1918C79.8779 160.005 79.624 160.26 79.624 160.573V165.406V174.248C79.624 174.562 79.8788 174.816 80.1918 174.816H191.089H318.871V211.796H303.35V206.007H309.741C310.055 206.007 310.31 205.752 310.31 205.439V202.353C310.31 202.039 310.055 201.785 309.741 201.785H291.02C290.706 201.785 290.451 202.04 290.451 202.353V205.439C290.451 205.753 290.706 206.007 291.02 206.007H297.411V211.796H272.656C272.858 209.032 272.801 207.015 272.795 206.823C272.788 206.606 272.658 206.413 272.462 206.324L253.561 197.737C252.824 194.64 251.667 191.653 250.12 188.853C247.475 184.068 243.545 181.406 239.03 179.997C238.99 179.979 238.947 179.966 238.903 179.957C232.225 177.914 224.292 178.583 217.366 179.167C204.807 180.226 198.377 193.481 198.1 194.067C196.907 196.889 196.583 199.993 196.925 203.118L194.863 211.796H152.917H80.1918C79.8779 211.796 79.624 212.05 79.624 212.363V222.783C79.624 223.097 79.8788 223.35 80.1918 223.35H138.134H145.892C137.028 229.887 125.343 241.701 111.773 263.064C83.9489 306.873 87.4502 317.408 88.5047 319.145C87.6287 321.847 81.1385 342.487 83.6273 353.683C84.7973 358.949 88.9733 367.007 102.381 374.771C110.579 379.518 122.222 384.155 138.754 387.976C169.32 395.039 187.638 398.151 193.402 399.065L138.988 422.227C137.47 422.874 136.312 423.81 135.524 425.024C133.32 426.367 118.296 435.536 117.474 436.36C116.168 437.665 119.509 449.101 124.406 456.292C129.105 463.193 141.178 464.498 149.626 464.497C152.671 464.497 155.247 464.328 156.834 464.19C162.96 463.658 170.691 458.82 170.978 453.934C171.129 451.371 169.346 447.91 159.995 445.973C158.448 445.652 157.203 445.404 156.248 445.22C181.473 437.997 237.731 421.804 244.749 419.046C250.486 416.793 258.86 408.663 259.661 399.261C260.111 393.976 258.243 386.219 246.787 379.286C242.021 376.401 236.023 372.907 228.949 368.897L230.741 363.797L245.215 322.591L250.401 330.67C250.526 330.866 250.759 330.966 250.987 330.922C251.166 330.888 252.89 330.546 255.242 329.817C256.13 330.346 256.942 331.079 257.794 331.862C259.769 333.677 261.882 335.619 265.485 335.618C268.772 335.618 273.3 334.001 280.095 329.193C292.164 320.651 304.574 308.61 311.02 302.06L308.57 308.633C308.508 308.801 308.527 308.989 308.626 309.14C308.723 309.29 308.885 309.386 309.065 309.399L316.069 309.873C316.083 309.874 316.095 309.875 316.107 309.875C316.354 309.875 316.573 309.716 316.649 309.478L318.871 302.466V306.64C318.871 313.726 321.646 320.403 326.685 325.441C331.725 330.48 338.402 333.255 345.487 333.255H368.28C375.366 333.255 382.043 330.48 387.082 325.441C392.12 320.403 394.896 313.726 394.896 306.64V174.816H399.395C400.581 179.404 402.975 183.608 406.358 186.991C411.396 192.03 418.074 194.805 425.159 194.805H429.25H447.952C455.037 194.805 461.715 192.03 466.753 186.991C470.136 183.608 472.531 179.404 473.716 174.816H501.191C501.505 174.816 501.76 174.561 501.76 174.248V165.406V160.573C501.761 160.259 501.506 160.005 501.192 160.005ZM302.214 206.007V211.883H298.548V206.007H302.214ZM272.563 212.932H297.694C297.779 212.983 297.873 213.02 297.98 213.02H302.782C302.888 213.02 302.982 212.983 303.067 212.932H319.439C319.753 212.932 320.008 212.677 320.008 212.364V174.817H329.291V257.107L327.34 256.507L327.64 251.081C327.654 250.827 327.497 250.594 327.255 250.512C327.013 250.43 326.747 250.519 326.603 250.73L322.038 257.447C321.934 257.6 321.911 257.795 321.978 257.969C322.015 258.064 322.885 260.319 323.947 261.311C324.585 261.905 325.093 263.142 325.3 263.751L320.516 276.581C320.34 276.602 320.169 276.62 320.009 276.634V270.909V266.106V262.024C320.108 261.682 320.109 261.353 320.009 261.055V222.783C320.009 222.469 319.754 222.215 319.44 222.215H270.638C271.748 219.203 272.296 215.784 272.563 212.932ZM330.428 174.816H383.34V306.638C383.34 310.637 381.768 314.414 378.911 317.271C376.056 320.126 372.28 321.699 368.279 321.699H345.486C341.487 321.699 337.711 320.127 334.854 317.271C331.998 314.415 330.425 310.638 330.425 306.638V296.734C331.159 296.561 331.804 296.336 332.286 296.023C333.725 295.092 333.467 293.884 333.28 293.001C333.175 292.507 333.084 292.081 333.228 291.722C333.417 291.248 333.645 290.846 333.864 290.458C334.253 289.77 334.62 289.121 334.715 288.215C334.795 287.461 334.44 286.633 334.096 285.831C333.807 285.158 333.48 284.393 333.598 283.993C333.692 283.673 333.862 283.378 334.044 283.067C334.424 282.41 334.899 281.594 334.426 280.531C334.066 279.719 333.126 279.117 332.297 278.585C331.94 278.357 331.402 278.012 331.332 277.922C331.218 277.161 330.893 276.522 330.427 276.007V266.011L330.863 264.636C331.647 264.303 334.315 263.24 336.569 263.352C339.759 263.504 340.436 261.473 340.463 261.386C340.489 261.301 340.495 261.21 340.48 261.123L338.913 251.994C338.874 251.767 338.701 251.585 338.477 251.536C338.254 251.486 338.02 251.576 337.887 251.765L333.3 258.337L330.427 257.453V174.816H330.428ZM272.977 306.401L266.136 300.697C265.529 300.04 254.505 288.098 249.058 282.651C247.848 281.441 246.395 279.569 244.838 277.348C253.25 277.203 292.516 274.124 296 273.849C296.916 274.401 301.363 276.959 304.546 276.644C306.706 276.433 309.421 275.391 311.279 274.592C311.265 274.859 311.311 275.14 311.418 275.422C311.689 276.139 312.315 276.761 313.014 277.004C313.533 277.184 314.097 277.086 314.6 276.726C315.19 276.306 315.62 275.581 315.62 275.002C315.62 274.682 315.518 274.411 315.377 274.191C315.494 274.169 315.607 274.137 315.716 274.098C316.391 273.854 316.856 273.307 317.026 272.556C317.108 272.269 317.19 271.847 317.123 271.478H318.87V276.688C317.641 276.727 316.425 276.779 315.59 276.844C313.119 277.036 310.273 284.878 309.347 287.637L273.109 306.575C273.076 306.511 273.034 306.45 272.977 306.401ZM215.705 238.487C216.119 238.466 216.595 238.414 217.089 238.298C218.055 238.071 218.948 237.615 219.421 237.347C220.192 237.897 221.11 238.14 221.756 238.187C221.77 238.188 221.783 238.188 221.798 238.188C222.093 238.188 222.342 237.96 222.364 237.661C222.386 237.348 222.151 237.076 221.839 237.053C221.724 237.045 219.043 236.821 219.109 234.379C219.129 233.658 219.241 232.893 219.421 232.14C219.734 231.151 220.07 230.125 220.493 229.242C220.999 228.279 221.592 227.521 222.189 227.174C222.199 227.169 222.21 227.163 222.22 227.158C222.377 227.07 222.553 227.001 222.743 226.95C222.753 226.948 222.762 226.944 222.771 226.941C222.867 226.917 222.975 226.912 223.077 226.896C223.119 226.892 223.159 226.882 223.202 226.88C225.521 226.778 227.283 228.223 228.079 229.48C228.704 230.467 228.32 231.9 228.317 231.914C228.235 232.211 228.404 232.52 228.699 232.61C228.731 232.619 231.983 233.557 233.41 229.508C234.228 227.186 235.687 225.33 236.536 224.379L251.304 228.96C251.507 229.57 251.778 230.724 251.464 231.416C251.352 231.663 251.177 231.823 250.912 231.916C249.582 232.388 247.733 232.644 246.735 232.737C247.078 231.156 246.916 229.777 246.764 229.242C246.678 228.941 246.362 228.767 246.062 228.852C245.76 228.938 245.586 229.252 245.671 229.554C245.684 229.597 246.61 234.124 242.809 236.658C241.658 237.425 240.286 238.008 238.835 238.626C235.497 240.045 231.715 241.653 229.589 246.083C228.939 247.437 228.174 248.151 227.318 248.204C225.593 248.325 223.624 245.842 223.008 244.883C222.839 244.62 222.489 244.543 222.223 244.711C221.973 244.872 221.898 245.195 222.035 245.454C220.597 244.519 219.432 243.862 218.931 243.588C218.803 243.279 217.922 241.262 215.705 238.487ZM210.174 222.33C210.247 220.29 210.685 209.358 211.989 203.703C213.281 198.108 221.903 190.845 223.353 189.656C224.349 189.83 225.49 189.701 226.335 189.33C227.706 190.647 233.585 196.582 234.977 202.565C236.407 208.713 235.747 220.52 235.592 222.93C235.585 222.93 235.579 222.931 235.572 222.933C235.531 222.936 235.491 222.944 235.452 222.955C227.341 224.475 220.881 225.224 215.804 224.336C213.993 223.953 212.302 223.392 210.783 222.673C210.58 222.564 210.377 222.45 210.174 222.33ZM221.527 186.889C221.527 185.962 222.795 185.178 224.296 185.178C225.796 185.178 227.064 185.961 227.065 186.887C227.065 186.888 227.065 186.889 227.065 186.891C227.064 187.374 226.72 187.818 226.177 188.133C226.161 188.141 226.145 188.15 226.129 188.16C225.637 188.432 224.992 188.6 224.296 188.6C222.795 188.599 221.527 187.816 221.527 186.889ZM227.212 249.346C227.271 249.346 227.328 249.344 227.386 249.341C228.685 249.262 229.771 248.331 230.613 246.577C232.554 242.533 235.973 241.079 239.28 239.674C240.782 239.035 242.201 238.432 243.439 237.606C245.004 236.563 245.9 235.218 246.393 233.902C247.454 233.847 249.742 233.538 251.291 232.989C251.845 232.793 252.262 232.411 252.5 231.884C252.858 231.089 252.756 230.104 252.589 229.361L255.959 230.406C255.99 230.416 256.023 230.423 256.056 230.427C256.156 230.439 256.833 230.519 257.848 230.519C260.831 230.519 266.729 229.832 269.504 224.743C269.748 224.297 269.971 223.831 270.18 223.351H318.869V260.021C318.233 259.786 317.352 259.686 316.199 259.729C314.115 259.807 312.514 259.476 311.096 259.185C309.608 258.879 308.323 258.614 306.974 258.93C304.646 259.473 299.055 263.491 297.982 264.273L246.204 260.366C245.707 260.202 242.159 258.996 238.238 256.853C238.231 256.849 238.222 256.844 238.215 256.841C234.138 254.61 231.494 253.107 229.411 251.837C228.763 250.972 227.969 250.132 227.112 249.338C227.148 249.339 227.18 249.346 227.212 249.346ZM312.344 272.587L309.648 272.606C309.452 271.992 309.137 271.18 308.655 270.407C308.219 269.706 307.679 269.205 307.21 268.862C307.875 268.531 308.482 268.126 308.96 267.631C310.314 266.225 311.251 264.578 311.785 263.482C311.84 263.483 311.9 263.486 311.968 263.489C311.935 263.576 311.912 263.669 311.902 263.765C311.84 264.311 312.04 264.705 312.182 264.91C312.217 265.033 312.272 265.154 312.346 265.269C312.283 265.239 312.22 265.209 312.161 265.175C311.989 265.074 311.834 265.046 311.695 265.069C310.782 265.216 310.551 267.721 310.842 269C310.968 269.554 311.284 269.96 311.695 270.249C312.03 270.484 312.427 270.633 312.831 270.726C312.945 270.751 313.057 270.777 313.17 270.793C313.157 270.801 313.139 270.805 313.125 270.813C312.452 271.226 312.289 271.723 312.27 272.067C312.264 272.214 312.278 272.391 312.344 272.587ZM308.797 273.807C308.836 274.008 308.976 274.163 309.155 274.23C307.622 274.818 305.879 275.374 304.435 275.514C302.555 275.694 300.033 274.668 298.329 273.822L308.784 273.748C308.791 273.778 308.797 273.805 308.797 273.807ZM309.91 273.739L310.386 273.736C310.215 273.808 310.032 273.882 309.85 273.955C309.885 273.889 309.904 273.818 309.91 273.739ZM305.801 268.235C305.77 268.244 305.741 268.255 305.712 268.267C304.898 268.56 304.045 268.761 303.298 268.897L305.652 267.198L308.943 264.821L310.322 263.826C309.805 264.756 309.076 265.872 308.142 266.843C307.556 267.449 306.709 267.9 305.801 268.235ZM317.143 264.154C317.141 264.148 317.139 264.14 317.137 264.133C317.726 264.149 318.332 264.011 318.87 263.604V265.54H316.849C317.14 265.114 317.261 264.627 317.143 264.154ZM315.651 265.182C315.319 265.427 314.612 265.406 313.974 265.133C313.472 264.918 313.283 264.662 313.276 264.597C313.261 264.486 313.199 264.359 313.126 264.275C313.113 264.26 313.005 264.127 313.032 263.888C313.033 263.886 313.172 263.73 313.867 263.73C314.14 263.73 314.499 263.754 314.971 263.821C315.566 263.906 315.967 264.134 316.041 264.43C316.101 264.67 315.947 264.965 315.651 265.182ZM312.473 274.426C312.537 274.313 312.653 274.208 312.936 274.208C313.179 274.208 313.545 274.285 314.109 274.5C314.209 274.566 314.483 274.781 314.483 275.003C314.483 275.143 314.292 275.553 313.942 275.802C313.739 275.946 313.553 275.989 313.387 275.932C313.007 275.8 312.634 275.426 312.481 275.022C312.429 274.885 312.359 274.628 312.473 274.426ZM313.893 272.781C313.523 272.494 313.399 272.251 313.406 272.129C313.412 272.027 313.526 271.9 313.721 271.781C313.955 271.638 314.313 271.587 314.685 271.587C315.213 271.587 315.764 271.69 316.011 271.77C316.007 271.898 315.975 272.1 315.93 272.261C315.926 272.272 315.923 272.283 315.921 272.294C315.836 272.675 315.644 272.916 315.331 273.029C314.852 273.203 314.226 273.039 313.893 272.781ZM312.995 270.342V266.676H318.87V270.342H312.995ZM237.318 257.644C237.031 258.979 236.369 260.989 235.623 262.6C233.557 259.043 231.805 255.904 230.753 254.021L230.7 253.927C232.421 254.933 234.528 256.115 237.318 257.644ZM238.356 258.205C241.707 259.973 244.62 261.026 245.587 261.356C245.624 261.867 245.59 263.18 244.819 265.771C244.438 267.052 243.767 268.162 243.062 269.075C242.248 270.128 241.39 270.914 240.875 271.336C239.483 269.117 238.099 266.817 236.797 264.607C236.635 264.331 236.469 264.051 236.31 263.779C237.165 262.125 237.969 259.814 238.356 258.205ZM244.222 269.43C244.898 268.491 245.525 267.376 245.907 266.095C246.61 263.737 246.744 262.325 246.73 261.545L298.107 265.422C298.241 265.429 298.378 265.393 298.487 265.312C300.272 263.996 305.324 260.481 307.233 260.036C308.337 259.778 309.454 260.007 310.868 260.298C312.35 260.602 314.029 260.948 316.243 260.864C318.03 260.799 318.805 261.11 318.929 261.398C319.034 261.639 318.788 262.136 318.342 262.581C317.759 263.165 316.946 263.038 315.774 262.777C315.605 262.74 315.438 262.703 315.275 262.67C314.433 262.502 313.096 262.411 312.279 262.368C312.301 262.311 312.315 262.275 312.319 262.264C312.406 262.029 312.328 261.767 312.129 261.615C311.93 261.463 311.656 261.46 311.453 261.607L302.659 267.958L300.83 269.279C300.626 269.426 300.543 269.69 300.627 269.928C300.711 270.166 300.921 270.327 301.192 270.307C301.339 270.299 303.686 270.169 305.921 269.396C306.281 269.579 307.11 270.076 307.691 271.007C308.029 271.551 308.274 272.124 308.448 272.613L296.14 272.701C296.139 272.701 296.139 272.701 296.139 272.701C296.124 272.701 296.112 272.7 296.098 272.702L244.037 276.188C243.202 274.962 242.348 273.66 241.487 272.306C242.093 271.825 243.214 270.828 244.222 269.43ZM329.291 269.601V275.159C328.777 274.926 328.212 274.816 327.637 274.817L329.291 269.601ZM253.862 199.121L271.667 207.209C271.687 209.131 271.62 218.495 268.509 224.198C265.286 230.107 256.945 229.376 256.245 229.304L237.875 223.606C238.172 223.533 238.462 223.454 238.745 223.373C251.429 219.75 253.946 211.407 254.047 211.054C254.05 211.045 254.053 211.034 254.055 211.025C254.104 210.808 255.191 205.9 253.862 199.121ZM252.95 210.756C252.833 211.132 250.28 218.897 238.432 222.282C237.893 222.436 237.328 222.576 236.746 222.702C236.936 219.683 237.515 208.463 236.083 202.308C234.666 196.216 229.07 190.4 227.326 188.704C227.722 188.351 228.002 187.927 228.127 187.455C230.278 187.459 239.039 187.584 244.224 189.3C249.752 191.129 252.715 199.746 252.937 200.415C253.878 206.222 253.014 210.459 252.95 210.756ZM238.568 181.065C242.893 182.397 246.641 184.905 249.126 189.402C250.021 191.021 250.781 192.704 251.399 194.437C249.84 191.878 247.578 189.213 244.581 188.222C239.189 186.437 230.407 186.318 228.152 186.318C228.144 186.318 228.134 186.318 228.126 186.318C228.042 186.005 227.889 185.712 227.68 185.447C227.84 185.318 228.036 185.128 228.292 184.881C229.155 184.043 230.763 182.482 231.774 181.676C232.764 180.886 236.387 180.881 238.568 181.065ZM217.461 180.3C222.514 179.874 228.116 179.401 233.326 180.004C232.393 180.144 231.567 180.388 231.065 180.788C230.011 181.628 228.379 183.213 227.501 184.066C227.294 184.266 227.129 184.426 227.026 184.524C226.972 184.555 226.921 184.595 226.878 184.646C226.861 184.666 226.846 184.686 226.833 184.707C226.155 184.29 225.272 184.042 224.296 184.042C223.73 184.042 223.197 184.125 222.715 184.277C221.944 183.722 219.578 182.066 217.961 181.398C217.583 181.242 216.344 180.946 214.987 180.692C215.784 180.506 216.608 180.372 217.461 180.3ZM200.59 192.018C202.587 188.923 206.616 183.793 212.537 181.46C214.553 181.692 217.121 182.28 217.528 182.449C218.763 182.96 220.554 184.152 221.551 184.846C220.996 185.242 220.608 185.76 220.458 186.348C218.574 186.466 211.645 186.999 207.475 188.724C204.198 190.081 201.742 193.389 200.448 195.489L200.59 192.018ZM200.184 201.939C200.354 203.064 200.251 204.297 200.041 205.438L200.184 201.939ZM201.069 200.72C200.779 199.789 200.61 198.732 200.517 197.683C200.983 196.765 203.82 191.466 207.91 189.774C211.829 188.152 218.572 187.611 220.474 187.487C220.681 188.219 221.262 188.839 222.071 189.242C219.599 191.319 212.152 197.952 210.883 203.447C209.648 208.805 209.186 218.457 209.064 221.614C207.356 220.427 205.75 218.881 204.307 217.116C202.084 213.85 200.517 210.925 199.933 209.792C200.42 208.608 202.117 204.089 201.069 200.72ZM199.137 194.532C199.143 194.521 199.196 194.411 199.296 194.219C199.278 194.781 199.271 195.407 199.288 196.069L198.876 206.091L198.126 203.138C197.759 200.132 198.022 197.169 199.137 194.532ZM201.457 227.79C201.866 228.098 202.265 228.4 202.659 228.698C203.577 229.477 204.58 230.251 205.681 231.007C208.713 233.344 210.922 235.12 211.671 235.832C212.489 236.611 213.357 237.531 213.779 237.986C215.7 240.17 216.837 242.014 217.413 243.079C214.728 242.502 207.524 240.609 200.431 235.731C192.624 230.364 189.781 222.398 189.213 220.57L194.047 217.37C194.222 217.802 194.499 218.424 194.888 219.173C196.109 221.656 198.329 225.433 201.457 227.79ZM80.7596 222.216V212.932H194.593L193.829 216.15L192.131 217.274L164.039 215.265C163.581 215.258 157.54 215.232 147.477 222.216H80.7596ZM112.732 263.674C142.727 216.448 163.805 216.385 163.981 216.398L190.579 218.301L188.237 219.851C188.035 219.985 187.94 220.231 187.999 220.465C188.101 220.865 190.6 230.35 199.787 236.667C207.962 242.288 216.31 244.042 218.019 244.356C218.055 244.391 218.089 244.428 218.136 244.452C218.214 244.493 225.416 248.326 228.554 252.586C228.561 252.596 228.568 252.606 228.575 252.615C228.819 252.949 229.039 253.285 229.228 253.623L229.76 254.575C233.35 261.005 242.884 278.086 248.254 283.455C253.375 288.576 263.454 299.469 265.097 301.249C263.767 305.155 262.2 308.176 260.407 310.595C260.078 311.04 259.743 311.471 259.397 311.877C258.309 311.875 253.794 311.802 248.298 310.757C241.966 309.554 232.246 306.807 232.148 306.779C231.846 306.697 231.532 306.869 231.447 307.171C231.361 307.473 231.536 307.788 231.839 307.872C231.937 307.9 241.704 310.661 248.086 311.872C252.594 312.728 256.461 312.944 258.379 312.996C254.74 316.742 250.317 318.72 245.138 320.67C243.109 319.31 228.788 309.771 213.405 301.006C212.575 300.533 211.756 300.078 210.946 299.639C210.932 299.631 210.919 299.623 210.904 299.617C207.719 297.892 204.69 296.423 201.891 295.178C201.845 295.15 201.797 295.127 201.746 295.114C191.117 290.401 183.817 288.923 183.721 288.904C183.411 288.841 183.115 289.043 183.054 289.352C182.994 289.659 183.193 289.959 183.502 290.019C183.594 290.038 190.368 291.412 200.356 295.743C196.835 297.838 184.037 305.148 173.355 307.34C167.576 308.526 162.212 309.136 158.102 309.449C153.33 309.814 150.252 309.777 150.197 309.77C149.847 309.79 149.625 310.016 149.621 310.33C149.616 310.643 149.866 310.902 150.18 310.907C150.233 310.907 152.674 310.936 156.571 310.69C160.877 310.418 166.962 309.81 173.584 308.453C185.328 306.044 199.527 297.583 201.63 296.304C204.161 297.436 206.881 298.752 209.734 300.277L203.601 306.726L185.46 325.8L173.173 338.72C171.794 339.033 161.834 341.187 148.917 341.608C143.437 341.745 137.273 341.577 130.67 340.855C130.094 340.784 129.518 340.709 128.941 340.627C107.137 337.511 90.5174 319.713 89.5879 318.7C89.5841 318.696 89.5717 318.681 89.5698 318.679C89.5688 318.678 89.5678 318.678 89.5669 318.677C89.5583 318.668 89.5411 318.649 89.5383 318.647C89.4638 318.573 83.195 310.177 112.732 263.674ZM223.205 402.08C223.062 402.086 221.646 402.136 219.685 402.136C216.63 402.136 212.252 402.016 209.287 401.423C204.448 400.455 199.625 399.152 199.578 399.138C199.395 399.088 199.287 398.9 199.336 398.717C199.385 398.534 199.57 398.427 199.757 398.475C199.779 398.481 200.789 398.754 202.33 399.138L220.798 401.439C222.211 401.427 223.151 401.395 223.18 401.395C223.37 401.407 223.529 401.536 223.535 401.726C223.542 401.914 223.394 402.074 223.205 402.08ZM223.447 407.341C223.414 407.504 223.27 407.616 223.111 407.616C223.088 407.616 223.065 407.613 223.042 407.609C222.678 407.535 214.086 405.79 211.225 404.237C211.059 404.147 210.997 403.938 211.087 403.771C211.176 403.604 211.384 403.544 211.552 403.633C214.323 405.137 223.09 406.918 223.178 406.936C223.365 406.973 223.485 407.154 223.447 407.341ZM210.099 348.957C209.838 351.786 209.568 354.703 209.449 358.027C203.482 354.746 197.157 351.302 190.621 347.776C201.634 343.941 208.067 341.014 210.72 339.792C210.647 343.018 210.38 345.91 210.099 348.957ZM187.968 346.499C187.908 346.618 187.786 346.687 187.661 346.687C187.609 346.687 187.556 346.675 187.506 346.65L174.278 339.934C174.109 339.847 174.042 339.641 174.128 339.472C174.213 339.303 174.42 339.235 174.589 339.321L187.817 346.037C187.987 346.123 188.054 346.329 187.968 346.499ZM131.918 355.387C131.862 355.42 131.802 355.436 131.742 355.436C131.625 355.436 131.511 355.376 131.446 355.267C131.349 355.105 131.402 354.893 131.566 354.797C131.6 354.777 135.047 352.729 139.566 350.471C144.104 348.202 148.947 346.957 148.995 346.946C149.177 346.901 149.366 347.01 149.413 347.194C149.46 347.377 149.349 347.565 149.165 347.612C149.144 347.618 148.197 347.861 146.765 348.323L135.186 353.541C133.202 354.625 131.938 355.375 131.918 355.387ZM140.309 357.193C140.35 357.157 144.555 353.547 151.173 349.269C157.799 344.986 165.241 342.022 165.315 341.993C165.493 341.926 165.692 342.011 165.761 342.186C165.831 342.363 165.745 342.563 165.568 342.632C165.545 342.642 164.715 342.973 163.394 343.557L142.704 356.134C141.467 357.105 140.775 357.699 140.758 357.713C140.694 357.769 140.614 357.796 140.534 357.796C140.438 357.796 140.342 357.756 140.275 357.678C140.15 357.534 140.165 357.317 140.309 357.193ZM134.68 426.872C134.61 427.1 134.541 427.329 134.49 427.571C133.378 432.778 136.894 440.316 141.411 446.062C139.233 444.994 135.884 443.124 133.329 440.668C129.886 437.356 128.035 432.668 127.535 431.264C129.906 429.795 132.411 428.258 134.68 426.872ZM159.765 447.085C166.442 448.468 170.021 450.877 169.845 453.867C169.593 458.149 162.304 462.574 156.735 463.058C144.712 464.1 130.15 462.708 125.346 455.653C120.294 448.233 117.968 438.371 118.32 437.126C118.871 436.671 122.38 434.457 126.545 431.875C127.171 433.593 129.057 438.135 132.542 441.484C136.545 445.335 142.216 447.718 143.114 448.082C143.248 448.231 143.381 448.388 143.516 448.534C143.625 448.651 143.777 448.715 143.933 448.715C143.985 448.715 144.037 448.708 144.089 448.693C144.192 448.664 145.454 448.305 147.606 447.69C147.07 448.47 145.271 450.273 143.199 451.676C140.872 453.253 138.511 453.21 138.487 453.207C138.164 453.183 137.912 453.445 137.903 453.758C137.895 454.071 138.139 454.332 138.452 454.342C138.461 454.343 138.489 454.343 138.533 454.343C139.009 454.343 141.415 454.257 143.836 452.617C145.427 451.539 149.07 448.527 148.871 447.329C150.26 446.932 151.917 446.458 153.803 445.919C154.28 446.004 156.227 446.352 159.765 447.085ZM245.922 321.589C251.031 319.647 255.551 317.528 259.309 313.599C259.526 313.371 259.75 313.162 259.962 312.923C260.055 312.864 260.129 312.78 260.175 312.679C262.443 310.045 264.406 306.647 266.014 302.075L272.038 307.098C271.986 308.423 271.596 314.459 268.845 319.344C268.313 320.288 267.702 321.193 266.98 322.008C262.555 326.996 253.138 329.288 251.146 329.727L245.922 321.589ZM279.438 328.263C265.949 337.811 262.194 334.361 258.562 331.025C257.913 330.429 257.284 329.862 256.614 329.368C260.312 328.098 264.972 325.983 267.828 322.764C268.835 321.629 269.648 320.352 270.312 319.031C272.484 314.703 273.012 309.886 273.138 307.843L310.076 288.539C310.208 288.471 310.306 288.354 310.353 288.214C311.961 283.365 314.454 278.074 315.678 277.978C316.767 277.893 318.502 277.832 320.064 277.791L319.792 278.521C318.22 279.365 316.951 280.038 316.922 280.053C316.645 280.2 316.54 280.544 316.686 280.821C316.833 281.099 317.174 281.205 317.454 281.058C317.72 280.918 323.988 277.598 325.923 276.43C326.013 276.376 326.11 276.347 326.203 276.303C326.434 276.203 326.632 276.127 326.801 276.072C327.502 275.885 328.235 275.916 328.855 276.207C329.381 276.454 330.041 276.983 330.208 278.094C330.292 278.654 330.875 279.028 331.684 279.545C332.344 279.968 333.166 280.494 333.388 280.995C333.613 281.504 333.431 281.86 333.061 282.499C332.863 282.838 332.641 283.223 332.507 283.675C332.274 284.468 332.67 285.389 333.052 286.282C333.131 286.467 333.21 286.652 333.283 286.835C333.474 287.312 333.621 287.767 333.586 288.098C333.516 288.769 333.233 289.269 332.876 289.9C332.649 290.302 332.392 290.756 332.174 291.302C331.902 291.982 332.044 292.65 332.169 293.239C332.36 294.134 332.418 294.586 331.67 295.071C330.46 295.854 327.639 296.041 325.151 296.206C324.206 296.268 323.29 296.33 322.486 296.419C321.694 296.506 320.798 296.546 319.909 296.558L315.127 296.416C315.094 296.418 315.065 296.431 315.033 296.436C314.946 296.45 314.867 296.48 314.794 296.531C314.763 296.552 314.727 296.564 314.7 296.593L314.694 296.599C314.694 296.599 314.693 296.599 314.693 296.6C314.692 296.601 314.683 296.611 314.681 296.613L312.081 299.342C312.079 299.344 312.078 299.348 312.076 299.35C306.477 305.142 292.743 318.848 279.438 328.263ZM393.759 306.638C393.759 313.42 391.103 319.812 386.278 324.636C381.453 329.46 375.062 332.117 368.28 332.117H345.487C338.705 332.117 332.313 329.461 327.488 324.636C322.664 319.811 320.008 313.42 320.008 306.638V298.877L320.385 297.686C320.827 297.674 321.268 297.655 321.697 297.626C322.234 297.61 322.811 297.59 323.417 297.565C324.316 297.528 325.486 297.396 326.642 297.239C327.561 297.169 328.462 297.086 329.288 296.958V306.638C329.288 310.942 330.979 315.003 334.05 318.073C337.121 321.143 341.183 322.834 345.485 322.834H368.278C372.582 322.834 376.644 321.143 379.713 318.073C382.783 315.002 384.474 310.941 384.474 306.638V174.816H393.757V306.638H393.759ZM465.952 186.188C461.127 191.012 454.736 193.669 447.954 193.669H425.161C418.379 193.669 411.987 191.012 407.163 186.188C403.993 183.018 401.72 179.098 400.56 174.816H410.394C411.205 176.606 412.324 178.222 413.726 179.625C416.797 182.695 420.858 184.386 425.161 184.386H447.954C452.258 184.386 456.319 182.695 459.389 179.625C460.793 178.221 461.912 176.605 462.721 174.816H472.555C471.395 179.098 469.122 183.018 465.952 186.188ZM411.668 174.816H416.004H461.445C460.715 176.291 459.765 177.641 458.585 178.822C455.729 181.678 451.953 183.251 447.952 183.251H425.159C423.913 183.251 422.693 183.081 421.512 182.784C418.901 182.128 416.493 180.789 414.527 178.822C413.35 177.642 412.4 176.293 411.668 174.816ZM500.624 173.68H473.286H462.349H410.764H399.827H394.327H383.908H329.858H319.438H80.7596V165.975H500.624V173.68Z" fill="#1A1A1B"/>
<path d="M500.624 165.974V173.679H473.286H462.349H410.764H399.827H394.327H383.908H329.858H319.438H80.7596V165.974H500.624ZM222.223 244.713C222.489 244.544 222.839 244.622 223.008 244.885C223.624 245.844 225.593 248.328 227.318 248.206C228.174 248.153 228.939 247.44 229.589 246.085C231.715 241.654 235.498 240.046 238.835 238.628C240.286 238.01 241.658 237.427 242.81 236.66C246.61 234.125 245.684 229.599 245.671 229.556C245.586 229.255 245.76 228.94 246.062 228.854C246.362 228.769 246.678 228.943 246.764 229.244C246.917 229.779 247.078 231.157 246.735 232.739C247.734 232.646 249.582 232.389 250.912 231.918C251.177 231.825 251.351 231.665 251.464 231.418C251.777 230.725 251.507 229.572 251.304 228.962L236.536 224.381C235.687 225.331 234.228 227.188 233.41 229.51C231.984 233.558 228.732 232.621 228.699 232.612C228.404 232.522 228.235 232.214 228.317 231.916C228.32 231.902 228.704 230.468 228.079 229.482C227.283 228.225 225.52 226.78 223.202 226.882C223.16 226.884 223.119 226.894 223.077 226.897C222.975 226.913 222.867 226.918 222.771 226.943C222.762 226.945 222.753 226.949 222.743 226.952C222.546 227.005 222.362 227.076 222.201 227.168C221.6 227.511 221.003 228.275 220.494 229.244C220.071 230.127 219.735 231.153 219.421 232.142C219.241 232.895 219.129 233.66 219.11 234.381C219.045 236.823 221.726 237.046 221.84 237.055C222.153 237.078 222.387 237.35 222.365 237.663C222.343 237.962 222.094 238.19 221.799 238.19C221.784 238.19 221.771 238.19 221.757 238.189C221.111 238.142 220.194 237.899 219.422 237.349C218.948 237.617 218.056 238.073 217.09 238.299C216.596 238.416 216.12 238.468 215.706 238.489C217.923 241.264 218.804 243.281 218.932 243.592C219.433 243.866 220.598 244.522 222.036 245.458C221.898 245.197 221.973 244.875 222.223 244.713ZM312.279 262.367C313.095 262.41 314.433 262.501 315.275 262.669C315.439 262.702 315.606 262.739 315.774 262.776C316.947 263.037 317.759 263.165 318.342 262.58C318.788 262.135 319.035 261.638 318.929 261.397C318.804 261.109 318.03 260.798 316.243 260.863C314.029 260.947 312.35 260.601 310.868 260.297C309.455 260.006 308.338 259.778 307.233 260.035C305.324 260.48 300.272 263.995 298.487 265.311C298.378 265.391 298.24 265.428 298.107 265.421L246.73 261.544C246.743 262.325 246.61 263.736 245.907 266.094C245.525 267.375 244.898 268.49 244.222 269.429C250.405 269.599 296.568 270.82 297.945 269.568C298.875 268.724 300.743 268.357 302.659 267.956L311.453 261.605C311.656 261.458 311.93 261.462 312.129 261.613C312.328 261.764 312.406 262.027 312.319 262.262C312.315 262.274 312.302 262.31 312.279 262.367ZM308.943 264.821L305.652 267.198C305.737 267.168 305.825 267.14 305.908 267.11C307.126 266.656 308.122 265.702 308.943 264.821ZM243.062 269.075C243.767 268.162 244.438 267.052 244.819 265.771C245.591 263.18 245.624 261.867 245.587 261.356C244.62 261.026 241.707 259.972 238.356 258.205C237.97 259.815 237.166 262.125 236.311 263.779C236.47 264.051 236.636 264.331 236.798 264.607L243.062 269.075ZM200.04 205.438C200.251 204.297 200.353 203.064 200.183 201.939L200.04 205.438ZM333.063 282.498C333.433 281.859 333.615 281.503 333.39 280.994C333.168 280.493 332.346 279.967 331.685 279.544C330.877 279.027 330.294 278.653 330.21 278.093C330.043 276.981 329.383 276.453 328.857 276.206C328.237 275.915 327.504 275.884 326.803 276.071C326.635 276.126 326.436 276.202 326.205 276.302C326.112 276.346 326.014 276.375 325.925 276.429C323.99 277.597 317.722 280.916 317.456 281.057C317.176 281.204 316.836 281.098 316.688 280.82C316.542 280.543 316.647 280.2 316.924 280.052C316.953 280.037 318.222 279.365 319.794 278.52L320.066 277.79C318.504 277.832 316.768 277.893 315.68 277.977C314.456 278.072 311.962 283.364 310.355 288.213C310.308 288.353 310.21 288.47 310.078 288.538L273.14 307.842C273.013 309.885 272.486 314.702 270.314 319.03C270.711 320.353 271.92 322.647 275.552 322.647C280.651 322.647 310.085 298.402 312.59 295.27C315.095 292.139 327.53 291.602 328.873 291.424C329.971 291.277 332.428 288.019 333.287 286.835C333.213 286.652 333.135 286.467 333.056 286.282C332.674 285.389 332.278 284.468 332.511 283.675C332.642 283.222 332.865 282.837 333.063 282.498ZM199.137 194.532C198.022 197.169 197.76 200.133 198.126 203.138L198.876 206.091L199.288 196.068C199.271 195.407 199.278 194.78 199.296 194.218C199.195 194.411 199.143 194.521 199.137 194.532ZM200.59 192.018L200.448 195.489C201.742 193.389 204.198 190.081 207.475 188.724C211.646 186.998 218.574 186.465 220.458 186.348C220.607 185.76 220.996 185.242 221.551 184.846C220.554 184.152 218.763 182.96 217.528 182.449C217.121 182.28 214.553 181.692 212.537 181.46C206.616 183.793 202.587 188.923 200.59 192.018ZM254.046 211.054C253.946 211.407 251.428 219.75 238.744 223.373C238.461 223.454 238.17 223.533 237.874 223.606L256.244 229.304C256.944 229.377 265.285 230.107 268.508 224.198C271.618 218.495 271.686 209.131 271.666 207.209L253.861 199.121C255.191 205.9 254.104 210.808 254.054 211.025C254.052 211.034 254.049 211.045 254.046 211.054ZM217.461 180.3C216.607 180.371 215.784 180.506 214.987 180.693C216.343 180.947 217.583 181.243 217.961 181.399C219.578 182.067 221.944 183.724 222.715 184.277C223.196 184.126 223.73 184.043 224.296 184.043C225.272 184.043 226.154 184.291 226.833 184.708C226.847 184.687 226.862 184.666 226.878 184.647C226.921 184.596 226.972 184.556 227.026 184.525C227.129 184.426 227.294 184.266 227.501 184.067C228.378 183.214 230.011 181.63 231.065 180.789C231.566 180.389 232.393 180.145 233.326 180.005C228.117 179.401 222.514 179.873 217.461 180.3ZM226.129 188.16C226.145 188.15 226.161 188.14 226.177 188.133C226.72 187.818 227.064 187.375 227.065 186.891C227.065 186.891 227.065 186.889 227.065 186.887C227.064 185.961 225.796 185.178 224.296 185.178C222.795 185.178 221.527 185.962 221.527 186.889C221.527 187.817 222.795 188.6 224.296 188.6C224.992 188.599 225.637 188.432 226.129 188.16ZM238.568 181.065C236.387 180.88 232.764 180.886 231.775 181.675C230.764 182.481 229.156 184.042 228.293 184.88C228.037 185.127 227.842 185.317 227.681 185.446C227.89 185.711 228.042 186.004 228.127 186.317C228.135 186.317 228.145 186.317 228.153 186.317C230.408 186.317 239.19 186.436 244.582 188.221C247.579 189.212 249.841 191.878 251.4 194.436C250.782 192.704 250.021 191.02 249.127 189.401C246.642 184.906 242.893 182.397 238.568 181.065ZM260.408 310.595C262.201 308.176 263.768 305.155 265.098 301.249C263.454 299.469 253.376 288.576 248.255 283.455C242.886 278.086 233.35 261.006 229.761 254.575L229.229 253.623C229.04 253.285 228.821 252.949 228.576 252.615C228.569 252.606 228.562 252.596 228.555 252.586C225.416 248.326 218.215 244.494 218.137 244.452C218.09 244.427 218.056 244.391 218.02 244.356C216.311 244.042 207.963 242.287 199.788 236.667C190.601 230.35 188.102 220.865 188 220.465C187.941 220.231 188.036 219.985 188.238 219.851L190.58 218.301L163.982 216.398C163.806 216.385 142.728 216.447 112.733 263.674C83.196 310.177 89.4648 318.573 89.5363 318.646C89.5392 318.649 89.5564 318.668 89.565 318.676L89.5678 318.678C89.5698 318.68 89.5822 318.695 89.586 318.699C90.5155 319.712 107.136 337.511 128.939 340.626C129.516 340.708 130.092 340.783 130.668 340.854C137.271 341.577 143.435 341.745 148.915 341.607C161.832 341.186 171.792 339.032 173.171 338.719L185.458 325.799C174.018 333.677 153.995 335.831 145.825 335.351C136.699 334.815 148.688 316.742 156.382 310.837C156.444 310.789 156.508 310.738 156.57 310.689C152.672 310.935 150.231 310.906 150.179 310.906C149.865 310.9 149.615 310.642 149.62 310.329C149.625 310.015 149.847 309.789 150.197 309.769C150.252 309.776 153.33 309.813 158.101 309.448C165.336 303.345 172.876 293.569 171.054 287.934C169.085 281.85 163.002 273.618 173.559 276.303C184.116 278.987 226.702 301.532 236.543 304.574C245.362 307.3 259.714 307.143 260.408 310.595ZM266.014 302.075C264.406 306.647 262.444 310.046 260.175 312.679C260.129 312.779 260.055 312.864 259.962 312.923C259.75 313.162 259.526 313.371 259.309 313.599C257.888 317.906 261.12 321.922 263.024 322.557C264.483 323.042 267.229 320.821 268.844 319.343C271.596 314.458 271.986 308.422 272.037 307.097L266.014 302.075ZM235.623 262.6C236.369 260.989 237.032 258.979 237.318 257.644C234.528 256.115 232.421 254.933 230.7 253.927L230.753 254.021C231.805 255.905 233.557 259.043 235.623 262.6ZM211.989 203.703C210.685 209.357 210.246 220.289 210.174 222.33C210.377 222.449 210.58 222.565 210.784 222.675C212.303 223.393 213.994 223.954 215.805 224.338C220.882 225.226 227.342 224.477 235.453 222.957C235.492 222.946 235.532 222.938 235.573 222.935C235.58 222.934 235.586 222.933 235.593 222.931C235.748 220.522 236.408 208.715 234.978 202.567C233.586 196.584 227.706 190.649 226.336 189.331C225.491 189.703 224.35 189.831 223.354 189.658C221.903 190.845 213.281 198.108 211.989 203.703ZM134.49 427.571C134.541 427.329 134.61 427.1 134.68 426.872C132.411 428.258 129.906 429.795 127.534 431.263C128.034 432.668 129.885 437.356 133.328 440.667C135.882 443.123 139.233 444.993 141.41 446.061C136.894 440.316 133.378 432.778 134.49 427.571ZM194.047 217.368L189.213 220.568C189.781 222.397 192.625 230.363 200.431 235.73C207.524 240.606 214.727 242.5 217.413 243.077C216.837 242.012 215.7 240.168 213.779 237.985C213.356 237.529 212.489 236.609 211.671 235.83C210.922 235.118 208.713 233.342 205.681 231.005C204.58 230.249 203.577 229.475 202.659 228.696C202.265 228.398 201.866 228.096 201.457 227.788C198.328 225.432 196.109 221.655 194.888 219.171C194.5 218.422 194.222 217.8 194.047 217.368ZM204.306 217.117C205.749 218.881 207.355 220.428 209.063 221.615C209.185 218.458 209.646 208.807 210.882 203.448C212.151 197.953 219.598 191.32 222.07 189.243C221.261 188.84 220.68 188.22 220.473 187.488C218.571 187.612 211.828 188.153 207.909 189.775C203.82 191.467 200.982 196.766 200.516 197.683C200.609 198.733 200.778 199.79 201.068 200.721C202.116 204.089 200.419 208.609 199.931 209.793C200.516 210.925 202.083 213.851 204.306 217.117ZM244.225 189.3C239.04 187.584 230.279 187.459 228.128 187.455C228.003 187.926 227.723 188.351 227.327 188.704C229.071 190.4 234.666 196.216 236.084 202.308C237.515 208.463 236.937 219.683 236.747 222.702C237.329 222.576 237.894 222.436 238.433 222.282C250.281 218.897 252.834 211.132 252.951 210.755C253.014 210.459 253.879 206.222 252.938 200.416C252.716 199.747 249.753 191.129 244.225 189.3ZM131.918 355.387C131.939 355.375 133.202 354.625 135.186 353.54L146.765 348.322C148.198 347.86 149.144 347.616 149.165 347.611C149.348 347.564 149.46 347.377 149.413 347.193C149.366 347.01 149.178 346.9 148.995 346.945C148.947 346.957 144.104 348.201 139.566 350.47C135.048 352.728 131.6 354.776 131.566 354.796C131.402 354.893 131.349 355.104 131.446 355.266C131.51 355.374 131.625 355.435 131.742 355.435C131.802 355.436 131.862 355.421 131.918 355.387ZM187.818 346.037L174.59 339.321C174.42 339.235 174.214 339.302 174.128 339.472C174.043 339.641 174.109 339.848 174.279 339.933L187.507 346.65C187.556 346.675 187.61 346.687 187.662 346.687C187.787 346.687 187.909 346.618 187.969 346.499C188.054 346.329 187.987 346.123 187.818 346.037ZM165.315 341.993C165.241 342.022 157.8 344.986 151.173 349.269C144.555 353.546 140.351 357.157 140.309 357.193C140.165 357.317 140.15 357.534 140.273 357.678C140.34 357.756 140.436 357.796 140.532 357.796C140.611 357.796 140.692 357.769 140.757 357.713C140.773 357.699 141.466 357.106 142.702 356.134L163.393 343.557C164.713 342.973 165.543 342.642 165.566 342.632C165.743 342.563 165.829 342.363 165.759 342.186C165.691 342.011 165.492 341.926 165.315 341.993ZM223.18 401.394C223.151 401.394 222.211 401.427 220.798 401.438L202.33 399.137C200.789 398.753 199.779 398.48 199.757 398.474C199.57 398.426 199.385 398.533 199.336 398.717C199.287 398.899 199.395 399.088 199.578 399.137C199.625 399.151 204.448 400.454 209.287 401.422C212.251 402.015 216.63 402.135 219.685 402.135C221.647 402.135 223.062 402.085 223.205 402.08C223.395 402.073 223.543 401.913 223.535 401.724C223.529 401.536 223.37 401.406 223.18 401.394ZM223.179 406.936C223.091 406.918 214.324 405.137 211.553 403.633C211.384 403.543 211.177 403.604 211.088 403.771C210.998 403.938 211.059 404.147 211.226 404.237C214.088 405.79 222.679 407.535 223.043 407.609C223.066 407.613 223.089 407.616 223.112 407.616C223.271 407.616 223.415 407.504 223.448 407.341C223.485 407.153 223.365 406.973 223.179 406.936Z" fill="white"/>
<path d="M308.96 267.63C310.314 266.224 311.251 264.577 311.785 263.481C311.84 263.483 311.9 263.485 311.968 263.488C311.935 263.575 311.912 263.668 311.902 263.764C311.84 264.31 312.04 264.704 312.182 264.909C312.217 265.032 312.272 265.153 312.346 265.268C312.283 265.238 312.22 265.208 312.161 265.174C311.989 265.073 311.834 265.045 311.695 265.068C310.782 265.216 310.551 267.72 310.842 268.999C310.968 269.553 311.284 269.959 311.695 270.248C312.03 270.483 312.427 270.632 312.831 270.725C312.945 270.75 313.057 270.776 313.17 270.792C313.157 270.8 313.139 270.804 313.125 270.813C312.452 271.225 312.289 271.722 312.27 272.066C312.262 272.213 312.277 272.39 312.342 272.586L309.646 272.605C309.45 271.991 309.135 271.179 308.653 270.406C308.217 269.706 307.677 269.204 307.209 268.861C307.875 268.531 308.482 268.126 308.96 267.63ZM315.331 273.03C315.644 272.917 315.836 272.676 315.921 272.295C315.923 272.284 315.926 272.273 315.93 272.262C315.975 272.101 316.007 271.899 316.011 271.771C315.764 271.69 315.213 271.588 314.685 271.588C314.313 271.588 313.955 271.639 313.721 271.782C313.526 271.901 313.412 272.028 313.406 272.129C313.399 272.251 313.523 272.495 313.893 272.782C314.226 273.039 314.852 273.203 315.331 273.03ZM308.784 273.748L298.329 273.822C300.033 274.669 302.556 275.695 304.435 275.514C305.879 275.373 307.622 274.817 309.155 274.23C308.977 274.163 308.836 274.008 308.797 273.807C308.797 273.805 308.791 273.778 308.784 273.748ZM241.488 272.306C242.349 273.66 243.203 274.962 244.038 276.188L296.099 272.702C296.113 272.699 296.125 272.701 296.14 272.701L308.449 272.613C308.275 272.124 308.03 271.55 307.691 271.007C307.111 270.076 306.281 269.579 305.922 269.396C303.687 270.169 301.34 270.299 301.193 270.307C300.922 270.327 300.712 270.166 300.628 269.928C300.544 269.69 300.627 269.427 300.831 269.279L302.66 267.958C300.744 268.359 298.876 268.725 297.946 269.57C296.569 270.822 250.406 269.6 244.223 269.431C243.214 270.828 242.093 271.825 241.488 272.306ZM310.386 273.737L309.91 273.74C309.905 273.818 309.884 273.89 309.85 273.957C310.032 273.882 310.215 273.808 310.386 273.737ZM312.936 274.207C312.652 274.207 312.537 274.312 312.473 274.425C312.36 274.627 312.429 274.885 312.48 275.02C312.633 275.424 313.006 275.798 313.386 275.93C313.552 275.988 313.738 275.944 313.941 275.8C314.291 275.551 314.482 275.141 314.482 275.001C314.482 274.78 314.209 274.564 314.108 274.498C313.545 274.284 313.179 274.207 312.936 274.207ZM173.582 308.453C166.961 309.811 160.876 310.419 156.569 310.69C156.506 310.739 156.443 310.789 156.381 310.838C148.688 316.743 136.699 334.815 145.824 335.352C153.994 335.832 174.016 333.678 185.457 325.8L203.598 306.726L209.732 300.277C206.878 298.752 204.158 297.436 201.627 296.304C199.525 297.583 185.325 306.043 173.582 308.453ZM266.979 322.008C267.702 321.193 268.312 320.288 268.844 319.344C267.229 320.822 264.483 323.043 263.024 322.558C261.12 321.923 257.887 317.907 259.309 313.6C255.551 317.529 251.031 319.648 245.922 321.59L251.145 329.727C253.137 329.288 262.554 326.995 266.979 322.008ZM243.062 269.075L236.798 264.608C238.099 266.818 239.484 269.118 240.876 271.337C241.39 270.914 242.248 270.129 243.062 269.075ZM248.087 311.873C241.705 310.661 231.938 307.9 231.84 307.873C231.538 307.788 231.363 307.474 231.448 307.172C231.533 306.87 231.846 306.698 232.149 306.78C232.247 306.808 241.967 309.555 248.299 310.758C253.795 311.803 258.31 311.876 259.398 311.878C259.744 311.472 260.078 311.041 260.408 310.596C259.714 307.144 245.362 307.302 236.543 304.576C226.701 301.533 184.115 278.988 173.559 276.305C163.001 273.62 169.085 281.852 171.054 287.936C172.876 293.57 165.337 303.346 158.101 309.45C162.21 309.136 167.575 308.526 173.354 307.341C184.037 305.149 196.834 297.839 200.355 295.744C190.368 291.413 183.594 290.038 183.501 290.02C183.193 289.96 182.993 289.66 183.053 289.353C183.114 289.045 183.411 288.842 183.72 288.905C183.817 288.924 191.116 290.401 201.745 295.115C201.796 295.129 201.844 295.151 201.89 295.179C204.69 296.425 207.718 297.894 210.903 299.618C210.918 299.625 210.932 299.633 210.945 299.64C211.756 300.079 212.574 300.534 213.404 301.007C228.788 309.773 243.108 319.312 245.137 320.671C250.316 318.721 254.739 316.743 258.378 312.997C256.462 312.945 252.595 312.729 248.087 311.873ZM313.275 264.598C313.283 264.662 313.471 264.918 313.973 265.133C314.611 265.407 315.318 265.429 315.65 265.183C315.947 264.966 316.101 264.67 316.04 264.431C315.966 264.135 315.565 263.908 314.97 263.822C314.499 263.755 314.139 263.731 313.866 263.731C313.171 263.731 313.032 263.887 313.031 263.889C313.004 264.128 313.112 264.261 313.125 264.276C313.198 264.36 313.261 264.487 313.275 264.598ZM305.801 268.235C306.708 267.9 307.556 267.449 308.141 266.842C309.075 265.871 309.804 264.755 310.321 263.825L308.942 264.82C308.121 265.702 307.125 266.655 305.907 267.109C305.824 267.139 305.737 267.168 305.651 267.197L303.297 268.896C304.044 268.76 304.898 268.559 305.711 268.266C305.741 268.255 305.77 268.244 305.801 268.235ZM332.877 289.9C333.234 289.268 333.517 288.768 333.587 288.097C333.623 287.766 333.476 287.311 333.284 286.834C332.425 288.018 329.969 291.277 328.87 291.423C327.529 291.601 315.092 292.138 312.587 295.269C310.082 298.4 280.648 322.646 275.549 322.646C271.918 322.646 270.709 320.352 270.312 319.029C269.648 320.351 268.834 321.627 267.827 322.762C264.971 325.981 260.311 328.096 256.613 329.367C257.282 329.86 257.911 330.427 258.561 331.023C262.193 334.359 265.948 337.809 279.437 328.261C292.742 318.846 306.475 305.14 312.076 299.347C312.077 299.345 312.078 299.341 312.08 299.339L314.68 296.61C314.682 296.608 314.691 296.598 314.692 296.597C314.692 296.597 314.693 296.597 314.693 296.596L314.699 296.59C314.726 296.561 314.762 296.549 314.793 296.528C314.867 296.477 314.945 296.447 315.032 296.434C315.064 296.428 315.093 296.416 315.126 296.414L319.908 296.555C320.797 296.542 321.694 296.503 322.485 296.416C323.289 296.327 324.205 296.267 325.15 296.204C327.638 296.038 330.459 295.851 331.669 295.068C332.417 294.583 332.36 294.132 332.168 293.236C332.043 292.647 331.901 291.979 332.173 291.299C332.394 290.756 332.65 290.301 332.877 289.9Z" fill="#E84393"/>
<path d="M318.871 260.021C318.235 259.786 317.354 259.686 316.201 259.729C314.117 259.807 312.516 259.476 311.098 259.185C309.61 258.879 308.325 258.614 306.976 258.93C304.648 259.473 299.057 263.491 297.984 264.273L246.206 260.366C245.709 260.202 242.161 258.996 238.24 256.853C238.233 256.849 238.224 256.844 238.216 256.841C234.14 254.61 231.496 253.107 229.413 251.837C228.765 250.972 227.971 250.132 227.114 249.338C227.148 249.339 227.18 249.346 227.212 249.346C227.271 249.346 227.328 249.345 227.386 249.342C228.685 249.263 229.771 248.332 230.613 246.578C232.554 242.534 235.973 241.08 239.28 239.675C240.782 239.036 242.201 238.433 243.439 237.607C245.004 236.564 245.9 235.219 246.393 233.903C247.454 233.848 249.742 233.539 251.291 232.99C251.845 232.794 252.262 232.412 252.5 231.885C252.858 231.09 252.756 230.105 252.589 229.362L255.959 230.406C255.99 230.417 256.023 230.424 256.056 230.427C256.156 230.44 256.833 230.52 257.848 230.52C260.831 230.52 266.729 229.833 269.504 224.744C269.748 224.298 269.971 223.832 270.18 223.352H318.869V260.021H318.871ZM389.725 421.068L382.473 420.813L365.148 429.647L389.725 421.068ZM332.288 296.024C331.806 296.336 331.161 296.561 330.427 296.735V306.639C330.427 310.638 331.998 314.415 334.856 317.272C337.712 320.127 341.488 321.7 345.488 321.7H368.281C372.281 321.7 376.057 320.128 378.913 317.272C381.769 314.416 383.342 310.639 383.342 306.639V174.816H330.43V257.455L333.303 258.339L337.89 251.767C338.023 251.578 338.257 251.488 338.48 251.538C338.704 251.588 338.877 251.768 338.916 251.996L340.483 261.125C340.498 261.213 340.493 261.304 340.466 261.388C340.439 261.475 339.762 263.506 336.571 263.354C334.318 263.242 331.651 264.306 330.866 264.638L330.43 266.013V276.009C330.896 276.524 331.222 277.163 331.335 277.924C331.404 278.014 331.943 278.359 332.3 278.587C333.128 279.119 334.069 279.721 334.429 280.533C334.901 281.595 334.427 282.412 334.046 283.069C333.866 283.38 333.695 283.675 333.601 283.995C333.483 284.395 333.811 285.16 334.099 285.833C334.442 286.635 334.797 287.463 334.718 288.217C334.623 289.122 334.256 289.772 333.867 290.46C333.648 290.848 333.42 291.25 333.23 291.724C333.087 292.083 333.177 292.509 333.283 293.003C333.469 293.885 333.727 295.094 332.288 296.024ZM209.449 358.027C209.568 354.704 209.838 351.786 210.099 348.957C210.379 345.91 210.647 343.018 210.719 339.792C208.066 341.014 201.633 343.942 190.62 347.776C197.157 351.302 203.482 354.746 209.449 358.027ZM318.871 263.603C318.333 264.01 317.727 264.148 317.138 264.132C317.14 264.139 317.142 264.147 317.144 264.153C317.262 264.626 317.141 265.114 316.85 265.539H318.871V263.603ZM314.599 276.726C314.096 277.086 313.532 277.184 313.013 277.004C312.315 276.761 311.688 276.14 311.417 275.422C311.31 275.14 311.264 274.859 311.278 274.592C309.421 275.391 306.705 276.434 304.545 276.644C301.362 276.96 296.916 274.401 295.999 273.849C292.515 274.123 253.249 277.202 244.837 277.348C246.394 279.569 247.848 281.441 249.057 282.651C254.504 288.098 265.529 300.04 266.135 300.697L272.976 306.401C273.033 306.449 273.075 306.51 273.109 306.575L309.347 287.637C310.273 284.879 313.119 277.037 315.59 276.844C316.425 276.779 317.641 276.728 318.87 276.688V271.478H317.123C317.19 271.847 317.107 272.269 317.026 272.556C316.856 273.307 316.391 273.854 315.716 274.098C315.607 274.138 315.494 274.169 315.377 274.191C315.517 274.411 315.62 274.682 315.62 275.002C315.619 275.581 315.189 276.306 314.599 276.726ZM196.926 203.119C196.584 199.994 196.908 196.89 198.1 194.068C198.378 193.482 204.808 180.227 217.367 179.168C224.293 178.584 232.226 177.915 238.904 179.958C238.948 179.967 238.991 179.979 239.031 179.998C243.545 181.407 247.476 184.068 250.121 188.854C251.668 191.654 252.825 194.641 253.562 197.738L272.462 206.325C272.66 206.414 272.789 206.607 272.796 206.824C272.801 207.016 272.858 209.034 272.657 211.797H297.412V206.008H291.021C290.707 206.008 290.452 205.753 290.452 205.44V202.354C290.452 202.04 290.707 201.786 291.021 201.786H309.742C310.056 201.786 310.311 202.041 310.311 202.354V205.44C310.311 205.754 310.056 206.008 309.742 206.008H303.351V211.797H318.872V174.817H191.088C180.641 186.915 168.06 199.333 152.918 211.797H194.864L196.926 203.119ZM120.816 398.112C102.313 392.826 97.5582 382.178 102.38 374.772C88.9733 367.008 84.7973 358.95 83.6263 353.684C81.1375 342.488 87.6277 321.848 88.5038 319.146C87.4493 317.409 83.948 306.874 111.773 263.065C125.342 241.701 137.027 229.887 145.891 223.351H138.133C135.385 225.394 132.589 227.437 129.694 229.476C63.8924 275.84 51.0217 356.507 85.0397 420.691C91.0441 417.499 99.9697 414.955 112.384 413.388C130.182 411.142 140.746 403.807 120.816 398.112ZM280.783 517.198C215.6 519.849 164.464 501.769 128.545 472.943C137.846 475.645 147.653 477.513 157.357 478.179C218.534 482.375 259.348 465.654 245.391 457.423C231.434 449.192 241.802 442.494 286.545 429.51C346.037 412.246 328.299 375.586 230.741 363.797L245.215 322.591L250.401 330.67C250.526 330.866 250.759 330.966 250.987 330.922C251.166 330.888 252.89 330.546 255.242 329.817C256.13 330.346 256.942 331.08 257.794 331.862C259.769 333.677 261.882 335.619 265.485 335.618C268.772 335.618 273.3 334.001 280.095 329.193C292.164 320.651 304.574 308.61 311.02 302.06L308.57 308.633C308.508 308.801 308.527 308.989 308.626 309.14C308.723 309.29 308.885 309.386 309.065 309.399L316.069 309.873C316.083 309.874 316.095 309.875 316.107 309.875C316.354 309.875 316.573 309.716 316.649 309.478L318.871 302.466V306.64C318.871 313.726 321.646 320.403 326.685 325.442C331.725 330.48 338.402 333.255 345.487 333.255H368.28C375.366 333.255 382.043 330.48 387.082 325.442C392.12 320.403 394.896 313.726 394.896 306.64V174.816H399.395C400.581 179.404 402.975 183.608 406.358 186.992C411.396 192.03 418.074 194.805 425.159 194.805H429.25C512.372 329.984 497.073 508.403 280.783 517.198ZM417.169 406.978L417.122 404.849C417.118 404.673 417.034 404.511 416.895 404.406L405.86 396.144C405.799 396.098 405.729 396.065 405.654 396.046L389.093 392.025C388.947 391.99 388.795 392.013 388.666 392.09L371.554 402.423L365.614 401.867C365.469 401.85 365.326 401.894 365.211 401.984L348.267 415.195C348.147 415.29 348.07 415.428 348.052 415.579L347.764 418.117C347.742 418.327 347.835 418.533 348.01 418.651L350.182 420.129L304.648 448.212C304.44 448.34 304.338 448.586 304.392 448.824L304.935 451.18L305.398 454.201C305.429 454.399 305.561 454.567 305.747 454.641L309.567 456.187C309.634 456.214 309.707 456.228 309.78 456.228C309.814 456.228 309.847 456.225 309.881 456.219L314.667 455.358C314.723 455.348 314.775 455.33 314.825 455.305L357.662 433.463L392.857 421.177L404.153 421.573C404.245 421.574 404.332 421.558 404.412 421.521L410.826 418.554C411.044 418.453 411.174 418.226 411.153 417.987L410.843 414.564C410.85 414.511 410.85 414.458 410.842 414.403C410.806 414.169 410.626 413.982 410.393 413.934L380.74 407.876L387.188 403.996L413.747 410.08C413.93 410.125 414.123 410.07 414.26 409.942L416.988 407.405C417.107 407.296 417.172 407.14 417.169 406.978ZM446.25 358.975C446.748 353.982 445.148 347.091 444.088 342.532C443.652 340.654 443.275 339.034 443.3 338.548C443.36 337.34 444.859 336.213 445.431 335.881C445.648 335.754 445.758 335.501 445.699 335.257L445.162 333.02C445.118 332.839 444.99 332.69 444.817 332.623C444.644 332.555 444.448 332.576 444.293 332.681L440.267 335.383C439.647 334.417 438.206 332.004 437.141 328.94C436.427 326.889 436.884 325.249 437.326 323.662C437.724 322.233 438.101 320.884 437.479 319.501C436.305 316.88 432.396 311.568 432.23 311.344C432.124 311.201 431.958 311.116 431.779 311.113L431.016 311.102C430.874 311.096 430.754 311.145 430.652 311.228C430.55 311.145 430.428 311.117 430.288 311.102L429.524 311.113C429.346 311.116 429.181 311.201 429.074 311.344C428.908 311.568 424.999 316.88 423.824 319.501C423.204 320.884 423.58 322.233 423.978 323.662C424.42 325.249 424.877 326.889 424.163 328.94C423.097 332.004 421.656 334.418 421.037 335.383L417.01 332.681C416.855 332.577 416.66 332.555 416.487 332.623C416.313 332.69 416.185 332.839 416.141 333.02L415.605 335.257C415.546 335.501 415.656 335.754 415.873 335.881C416.446 336.213 417.944 337.34 418.004 338.548C418.028 339.034 417.652 340.654 417.216 342.532C416.156 347.091 414.555 353.982 415.053 358.975C415.769 366.13 419.154 374.608 419.297 374.965C419.348 375.09 419.439 375.192 419.557 375.255C419.618 375.287 420.575 375.787 421.692 375.787C422.258 375.787 422.864 375.658 423.415 375.276C424.859 374.274 425.344 371.906 424.861 368.238C424.447 365.108 423.927 362.629 423.51 360.636C422.651 356.541 422.133 354.07 423.4 350.615C425.287 345.468 429.53 342.041 429.573 342.006C429.714 341.894 429.793 341.719 429.787 341.539C429.78 341.358 429.686 341.191 429.536 341.09L428.667 340.507L430.65 338.223L432.632 340.507L431.764 341.09C431.614 341.19 431.521 341.357 431.513 341.539C431.505 341.72 431.585 341.894 431.727 342.006C431.77 342.04 436.013 345.468 437.9 350.615C439.166 354.071 438.648 356.542 437.79 360.638C437.372 362.63 436.853 365.109 436.44 368.238C435.955 371.906 436.441 374.274 437.885 375.276C438.435 375.658 439.042 375.787 439.608 375.787C440.725 375.787 441.684 375.288 441.743 375.255C441.861 375.193 441.953 375.09 442.003 374.965C442.15 374.608 445.535 366.13 446.25 358.975ZM430.654 331.158C429.636 331.158 428.807 331.985 428.807 333.004C428.807 334.024 429.635 334.852 430.654 334.852C431.673 334.852 432.501 334.024 432.501 333.004C432.501 331.985 431.673 331.158 430.654 331.158ZM421.513 182.783C419.715 180.106 417.879 177.449 416.004 174.816H411.668C412.399 176.292 413.349 177.642 414.527 178.822C416.494 180.788 418.902 182.128 421.513 182.783ZM436.068 329.312C437.187 332.53 438.673 335.012 439.322 336.017L433.586 339.869L431.083 336.984C430.976 336.86 430.819 336.788 430.654 336.788C430.489 336.788 430.333 336.86 430.226 336.984L427.722 339.869L421.985 336.017C422.634 335.011 424.12 332.53 425.239 329.312C426.07 326.926 425.518 324.946 425.074 323.356C424.703 322.024 424.411 320.973 424.862 319.965C425.819 317.834 428.82 313.629 429.728 312.377L429.727 316.275C429.134 317.069 426.665 320.571 427.284 323.003C427.929 325.535 430.096 328.65 430.188 328.782C430.401 329.085 430.906 329.085 431.119 328.782C431.211 328.65 433.379 325.536 434.024 323.003C434.642 320.571 432.174 317.069 431.58 316.275L431.578 312.377C432.485 313.63 435.489 317.834 436.444 319.964C436.896 320.973 436.603 322.024 436.232 323.356C435.789 324.946 435.238 326.926 436.068 329.312ZM433.637 333.003C433.637 331.358 432.299 330.02 430.654 330.02C429.009 330.02 427.67 331.358 427.67 333.003C427.67 334.649 429.009 335.987 430.654 335.987C432.299 335.987 433.637 334.649 433.637 333.003ZM428.386 322.724C428.806 324.374 429.991 326.381 430.654 327.425C431.317 326.381 432.504 324.373 432.922 322.724C433.363 320.994 431.511 318.064 430.654 316.932C429.797 318.064 427.945 320.993 428.386 322.724ZM404.873 160.005C363.373 107.668 306.43 66.072 241.405 50.5455C241.405 50.5455 247.926 99.5336 202.984 160.005H404.873Z" fill="#008AEE"/>
<path d="M397.987 418.183L392.684 420.034L382.366 419.672C382.268 419.669 382.174 419.69 382.088 419.733L357.215 432.415L343.675 437.141L382.499 417.269L397.987 418.183ZM404.286 418.466C404.19 418.518 404.084 418.535 403.977 418.536L400.936 418.357L395.817 420.143L404.059 420.434L409.986 417.691L409.78 415.418L404.286 418.466ZM314.454 452.102C314.408 452.125 314.359 452.142 314.311 452.153L310.392 452.964C310.302 452.981 310.212 452.979 310.124 452.954L306.191 451.858L306.476 453.71L309.843 455.073L314.386 454.256L349.732 436.233L336.147 440.999L314.454 452.102ZM314.004 451.055L328.443 443.664L307.392 451.012L310.295 451.822L314.004 451.055ZM404.179 417.225L403.726 417.384L403.877 417.392L404.179 417.225ZM382.119 416.188C382.21 416.142 382.313 416.125 382.412 416.127L400.776 417.21L408.15 414.636L372.924 407.441L305.592 448.967L305.906 450.329L335.835 439.881L382.119 416.188ZM462.721 174.816C461.911 176.605 460.792 178.221 459.389 179.625C456.318 182.695 452.257 184.386 447.954 184.386H425.161C420.857 184.386 416.796 182.695 413.726 179.625C412.324 178.223 411.205 176.607 410.394 174.816H400.56C401.72 179.098 403.993 183.018 407.163 186.188C411.988 191.012 418.379 193.669 425.161 193.669H447.954C454.736 193.669 461.128 191.012 465.952 186.188C469.122 183.018 471.395 179.098 472.555 174.816H462.721ZM329.291 269.601L327.637 274.817C328.212 274.816 328.777 274.927 329.291 275.159V269.601ZM329.29 296.959C328.464 297.087 327.562 297.17 326.644 297.24C325.488 297.396 324.318 297.529 323.419 297.566C322.813 297.591 322.236 297.611 321.699 297.627C321.27 297.656 320.829 297.675 320.387 297.687L320.01 298.878V306.639C320.01 313.421 322.665 319.813 327.49 324.637C332.316 329.462 338.707 332.118 345.488 332.118H368.282C375.064 332.118 381.456 329.462 386.28 324.637C391.104 319.812 393.761 313.421 393.761 306.639V174.816H384.478V306.638C384.478 310.942 382.787 315.003 379.716 318.073C376.646 321.143 372.585 322.834 368.282 322.834H345.488C341.186 322.834 337.124 321.143 334.054 318.073C330.983 315.002 329.292 310.941 329.292 306.638V296.959H329.29ZM80.7596 222.216H147.477C157.54 215.232 163.582 215.258 164.039 215.265L192.131 217.274L193.829 216.15L194.593 212.932H80.7596V222.216ZM320.008 222.783V261.056C320.108 261.353 320.107 261.683 320.008 262.025V266.107V270.91V276.635C320.168 276.621 320.34 276.602 320.515 276.582L325.299 263.752C325.092 263.143 324.584 261.906 323.946 261.312C322.885 260.32 322.015 258.065 321.977 257.97C321.911 257.796 321.933 257.601 322.038 257.448L326.602 250.731C326.745 250.52 327.012 250.43 327.254 250.513C327.496 250.595 327.654 250.828 327.639 251.082L327.339 256.508L329.29 257.108V174.817H320.007V212.365C320.007 212.679 319.752 212.933 319.438 212.933H303.067C302.982 212.984 302.888 213.021 302.782 213.021H297.98C297.874 213.021 297.779 212.984 297.694 212.933H272.563C272.296 215.786 271.748 219.204 270.637 222.217H319.439C319.753 222.216 320.008 222.47 320.008 222.783ZM318.871 270.342V266.676H312.995V270.342H318.871ZM302.214 206.007H298.548V211.883H302.214V206.007ZM159.765 447.085C156.228 446.352 154.281 446.004 153.802 445.92C151.916 446.459 150.259 446.934 148.87 447.33C149.069 448.528 145.427 451.539 143.835 452.618C141.414 454.258 139.008 454.344 138.532 454.344C138.488 454.344 138.46 454.344 138.451 454.343C138.138 454.332 137.894 454.072 137.902 453.759C137.911 453.446 138.163 453.183 138.486 453.208C138.509 453.212 140.871 453.255 143.198 451.677C145.27 450.274 147.069 448.471 147.605 447.691C145.453 448.306 144.191 448.665 144.088 448.694C144.036 448.71 143.984 448.716 143.932 448.716C143.777 448.716 143.625 448.652 143.515 448.535C143.38 448.389 143.247 448.232 143.113 448.083C142.216 447.719 136.544 445.336 132.541 441.485C129.056 438.135 127.17 433.593 126.544 431.876C122.379 434.458 118.87 436.672 118.319 437.127C117.967 438.372 120.293 448.234 125.345 455.654C130.149 462.709 144.711 464.101 156.734 463.059C162.303 462.575 169.593 458.15 169.844 453.868C170.02 450.877 166.441 448.468 159.765 447.085Z" fill="#FFD2BB"/>
<path d="M286.545 429.51C241.802 442.494 231.434 449.192 245.391 457.423C259.348 465.654 218.534 482.375 157.357 478.179C147.653 477.514 137.847 475.645 128.545 472.943C88.9476 461.441 58.5836 434.759 85.0397 420.691C91.0441 417.499 99.9697 414.955 112.384 413.388C130.183 411.142 140.746 403.806 120.816 398.112C102.313 392.825 97.5582 382.177 102.38 374.771C110.578 379.518 122.221 384.155 138.753 387.976C169.319 395.039 187.637 398.151 193.401 399.065L138.987 422.227C137.469 422.874 136.311 423.81 135.523 425.024C133.319 426.367 118.295 435.536 117.473 436.36C116.167 437.665 119.508 449.101 124.405 456.292C129.104 463.193 141.177 464.498 149.625 464.497C152.67 464.497 155.246 464.328 156.833 464.19C162.959 463.658 170.69 458.82 170.977 453.934C171.128 451.371 169.346 447.91 159.994 445.973C158.447 445.652 157.202 445.404 156.247 445.22C181.472 437.997 237.73 421.804 244.748 419.046C250.485 416.793 258.859 408.663 259.66 399.261C260.11 393.976 258.242 386.219 246.786 379.286C242.02 376.401 236.022 372.907 228.948 368.897L230.74 363.797C328.299 375.586 346.037 412.246 286.545 429.51Z" fill="#66D895"/>
</svg>
